<svg width="720" height="720" viewBox="0 0 720 720" fill="none" xmlns="http://www.w3.org/2000/svg">
<rect width="720" height="720" rx="30" fill="#001669"/>
<path fill-rule="evenodd" clip-rule="evenodd" d="M534 515C547.255 515 558 504.255 558 491C558 477.745 547.255 467 534 467C520.745 467 510 477.745 510 491C510 504.255 520.745 515 534 515ZM534 500C538.971 500 543 495.971 543 491C543 486.029 538.971 482 534 482C529.029 482 525 486.029 525 491C525 495.971 529.029 500 534 500Z" fill="#BCFDFF"/>
<circle cx="558" cy="435" r="13" fill="#BCFDFF"/>
<circle cx="423" cy="270" r="13" fill="#BCFDFF"/>
<circle cx="151" cy="244" r="13" fill="#BCFDFF"/>
<circle cx="571" cy="397" r="7" fill="#BCFDFF"/>
<circle cx="144" cy="291" r="7" fill="#BCFDFF"/>
<path fill-rule="evenodd" clip-rule="evenodd" d="M534 348.5C534 339.387 541.387 332 550.5 332H563.5H564V332.027C566.25 332.276 568 334.184 568 336.5C568 338.816 566.25 340.724 564 340.973V341H563.5H551.5C547.358 341 544 344.358 544 348.5C544 352.642 547.358 356 551.5 356H590.5C594.642 356 598 352.642 598 348.5C598 344.358 594.642 341 590.5 341H578V340.973C577.836 340.991 577.669 341 577.5 341C575.015 341 573 338.985 573 336.5C573 334.015 575.015 332 577.5 332C577.669 332 577.836 332.009 578 332.027V332H590.5C599.613 332 607 339.387 607 348.5C607 357.613 599.613 365 590.5 365H550.5C541.387 365 534 357.613 534 348.5Z" fill="#7ADEFE"/>
<rect x="546" y="285" width="68" height="13" rx="6.5" fill="#7ADEFE"/>
<rect x="289" y="264" width="101" height="13" rx="6.5" fill="#7ADEFE"/>
<circle cx="423" cy="404" r="13" fill="#BCFDFF"/>
<rect x="289" y="397" width="101" height="13" rx="6.5" fill="#7ADEFE"/>
<rect x="110" y="386" width="68" height="13" rx="6.5" fill="#7ADEFE"/>
<rect x="210" y="500" width="365" height="54" rx="27" transform="rotate(-90 210 500)" fill="#BCFDFF"/>
<rect x="543" y="237" width="56" height="14" rx="7" fill="#7ADEFE"/>
<circle cx="564" cy="196" r="7" fill="#7ADEFE"/>
<path fill-rule="evenodd" clip-rule="evenodd" d="M518.5 162C530.926 162 541 151.926 541 139.5C541 127.074 530.926 117 518.5 117C506.074 117 496 127.074 496 139.5C496 151.926 506.074 162 518.5 162ZM518.5 147C522.642 147 526 143.642 526 139.5C526 135.358 522.642 132 518.5 132C514.358 132 511 135.358 511 139.5C511 143.642 514.358 147 518.5 147Z" fill="#BCFDFF"/>
<path fill-rule="evenodd" clip-rule="evenodd" d="M378 132C389.046 132 398 123.046 398 112C398 100.954 389.046 92 378 92C366.954 92 358 100.954 358 112C358 123.046 366.954 132 378 132ZM378 118.667C381.682 118.667 384.667 115.682 384.667 112C384.667 108.318 381.682 105.333 378 105.333C374.318 105.333 371.333 108.318 371.333 112C371.333 115.682 374.318 118.667 378 118.667Z" fill="#7ADEFE"/>
<path fill-rule="evenodd" clip-rule="evenodd" d="M437 118C429.268 118 423 124.268 423 132C423 139.732 429.268 146 437 146H457C464.732 146 471 139.732 471 132C471 124.268 464.732 118 457 118H437ZM438 125C434.134 125 431 128.134 431 132C431 135.866 434.134 139 438 139H456C459.866 139 463 135.866 463 132C463 128.134 459.866 125 456 125H438Z" fill="#7ADEFE"/>
<path fill-rule="evenodd" clip-rule="evenodd" d="M303 118C295.268 118 289 124.268 289 132C289 139.732 295.268 146 303 146H323C330.732 146 337 139.732 337 132C337 124.268 330.732 118 323 118H303ZM304 125C300.134 125 297 128.134 297 132C297 135.866 300.134 139 304 139H322C325.866 139 329 135.866 329 132C329 128.134 325.866 125 322 125H304Z" fill="#7ADEFE"/>
<path fill-rule="evenodd" clip-rule="evenodd" d="M116 334.5C116 325.387 123.387 318 132.5 318H160.5C169.613 318 177 325.387 177 334.5C177 343.613 169.613 351 160.5 351H132.5C123.387 351 116 343.613 116 334.5ZM153 328H161C164.866 328 168 331.134 168 335C168 338.866 164.866 342 161 342H153V328ZM132 342H140V328H132C128.134 328 125 331.134 125 335C125 338.866 128.134 342 132 342Z" fill="#7ADEFE"/>
<path fill-rule="evenodd" clip-rule="evenodd" d="M305.5 230C305.667 230 305.834 229.998 306 229.995V230H426C446.987 230 464 247.013 464 268C464 288.987 446.987 306 426 306H306V306.005C305.834 306.002 305.667 306 305.5 306C290.864 306 279 318.088 279 333C279 347.912 290.864 360 305.5 360C305.667 360 305.834 359.998 306 359.995V360H427C477.81 360 519 318.81 519 268C519 217.19 477.81 176 427 176H306V176.005C305.834 176.002 305.667 176 305.5 176C290.864 176 279 188.088 279 203C279 217.912 290.864 230 305.5 230Z" fill="#BCFDFF"/>
<path fill-rule="evenodd" clip-rule="evenodd" d="M305.5 361C305.667 361 305.834 360.998 306 360.995V361H426C446.987 361 464 378.013 464 399C464 419.987 446.987 437 426 437H306V437.005C305.834 437.002 305.667 437 305.5 437C290.864 437 279 449.088 279 464C279 478.912 290.864 491 305.5 491C305.667 491 305.834 490.998 306 490.995V491H427C477.81 491 519 449.81 519 399C519 348.19 477.81 307 427 307H306V307.005C305.834 307.002 305.667 307 305.5 307C290.864 307 279 319.088 279 334C279 348.912 290.864 361 305.5 361Z" fill="#BCFDFF"/>
<path fill-rule="evenodd" clip-rule="evenodd" d="M154.967 475.573C154.967 475.536 154.968 475.499 154.968 475.462H154.967V448.723C154.967 444.046 151.176 440.255 146.5 440.255C141.824 440.255 138.033 444.046 138.033 448.723V475.462H138.032C138.032 475.499 138.033 475.536 138.033 475.573C138.033 478.835 135.339 481.478 132.016 481.478C128.694 481.478 126 478.835 126 475.573C126 475.536 126 475.499 126.001 475.462H126V448.5C126 437.178 135.178 428 146.5 428C157.822 428 167 437.178 167 448.5V475.462H166.999C167 475.499 167 475.536 167 475.573C167 478.835 164.306 481.478 160.984 481.478C157.661 481.478 154.967 478.835 154.967 475.573Z" fill="#7ADEFE"/>
<path d="M206.167 589.192C206.785 589.597 207.308 590.077 207.735 590.632C208.183 591.165 208.535 591.827 208.791 592.616C209.068 593.491 209.207 594.376 209.207 595.272C209.228 596.147 209.068 596.968 208.727 597.736C208.407 598.483 207.884 599.144 207.159 599.72C206.455 600.275 205.527 600.669 204.375 600.904C203.756 601.053 203.031 601.171 202.199 601.256C201.367 601.341 200.62 601.384 199.959 601.384C199.127 601.405 198.263 601.405 197.367 601.384C196.492 601.384 195.639 601.299 194.807 601.128C194.444 601.021 194.177 600.84 194.007 600.584C193.857 600.307 193.751 599.997 193.687 599.656C193.601 599.464 193.559 599.272 193.559 599.08V580.904C193.559 580.307 193.676 579.848 193.911 579.528C194.167 579.187 194.497 578.941 194.903 578.792C195.308 578.621 195.767 578.525 196.279 578.504C196.791 578.461 197.324 578.44 197.879 578.44C198.305 578.44 198.732 578.44 199.159 578.44C199.607 578.419 200.055 578.419 200.503 578.44C201.207 578.461 201.932 578.525 202.679 578.632C203.447 578.717 204.172 578.888 204.855 579.144C205.175 579.251 205.516 579.4 205.879 579.592C206.241 579.763 206.529 579.976 206.743 580.232C207.425 580.851 207.927 581.576 208.247 582.408C208.588 583.219 208.737 584.051 208.695 584.904C208.652 585.736 208.417 586.536 207.991 587.304C207.585 588.072 206.977 588.701 206.167 589.192ZM200.567 597.672C201.228 597.629 201.9 597.555 202.583 597.448C203.265 597.341 203.735 597.139 203.991 596.84C204.268 596.499 204.46 596.104 204.567 595.656C204.695 595.187 204.727 594.717 204.663 594.248C204.62 593.757 204.481 593.299 204.247 592.872C204.033 592.424 203.745 592.072 203.383 591.816C202.892 591.432 202.327 591.187 201.687 591.08C201.047 590.952 200.417 590.888 199.799 590.888C199.5 590.888 199.223 590.899 198.967 590.92C198.732 590.92 198.519 590.952 198.327 591.016C198.156 591.059 198.028 591.155 197.943 591.304C197.857 591.453 197.815 591.677 197.815 591.976C197.857 592.531 197.857 593.085 197.815 593.64C197.772 594.195 197.751 594.728 197.751 595.24C197.751 595.539 197.74 595.869 197.719 596.232C197.719 596.573 197.836 596.861 198.071 597.096C198.305 597.331 198.647 597.491 199.095 597.576C199.543 597.661 200.033 597.693 200.567 597.672ZM201.207 582.312C200.545 582.291 199.991 582.28 199.543 582.28C199.116 582.259 198.775 582.291 198.519 582.376C198.284 582.44 198.113 582.6 198.007 582.856C197.921 583.091 197.889 583.453 197.911 583.944C197.911 584.349 197.9 584.755 197.879 585.16C197.879 585.544 197.879 585.928 197.879 586.312C197.879 586.739 198.017 587.059 198.295 587.272C198.572 587.464 198.913 587.581 199.319 587.624C199.745 587.667 200.183 587.667 200.631 587.624C201.1 587.581 201.505 587.528 201.847 587.464C202.615 587.336 203.201 587.08 203.607 586.696C204.033 586.291 204.279 585.704 204.343 584.936C204.428 583.976 204.172 583.315 203.575 582.952C202.999 582.568 202.209 582.355 201.207 582.312ZM234.219 589.192C234.838 589.597 235.361 590.077 235.787 590.632C236.235 591.165 236.587 591.827 236.843 592.616C237.121 593.491 237.259 594.376 237.259 595.272C237.281 596.147 237.121 596.968 236.779 597.736C236.459 598.483 235.937 599.144 235.211 599.72C234.507 600.275 233.579 600.669 232.427 600.904C231.809 601.053 231.083 601.171 230.251 601.256C229.419 601.341 228.673 601.384 228.011 601.384C227.179 601.405 226.315 601.405 225.419 601.384C224.545 601.384 223.691 601.299 222.859 601.128C222.497 601.021 222.23 600.84 222.059 600.584C221.91 600.307 221.803 599.997 221.739 599.656C221.654 599.464 221.611 599.272 221.611 599.08V580.904C221.611 580.307 221.729 579.848 221.963 579.528C222.219 579.187 222.55 578.941 222.955 578.792C223.361 578.621 223.819 578.525 224.331 578.504C224.843 578.461 225.377 578.44 225.931 578.44C226.358 578.44 226.785 578.44 227.211 578.44C227.659 578.419 228.107 578.419 228.555 578.44C229.259 578.461 229.985 578.525 230.731 578.632C231.499 578.717 232.225 578.888 232.907 579.144C233.227 579.251 233.569 579.4 233.931 579.592C234.294 579.763 234.582 579.976 234.795 580.232C235.478 580.851 235.979 581.576 236.299 582.408C236.641 583.219 236.79 584.051 236.747 584.904C236.705 585.736 236.47 586.536 236.043 587.304C235.638 588.072 235.03 588.701 234.219 589.192ZM228.619 597.672C229.281 597.629 229.953 597.555 230.635 597.448C231.318 597.341 231.787 597.139 232.043 596.84C232.321 596.499 232.513 596.104 232.619 595.656C232.747 595.187 232.779 594.717 232.715 594.248C232.673 593.757 232.534 593.299 232.299 592.872C232.086 592.424 231.798 592.072 231.435 591.816C230.945 591.432 230.379 591.187 229.739 591.08C229.099 590.952 228.47 590.888 227.851 590.888C227.553 590.888 227.275 590.899 227.019 590.92C226.785 590.92 226.571 590.952 226.379 591.016C226.209 591.059 226.081 591.155 225.995 591.304C225.91 591.453 225.867 591.677 225.867 591.976C225.91 592.531 225.91 593.085 225.867 593.64C225.825 594.195 225.803 594.728 225.803 595.24C225.803 595.539 225.793 595.869 225.771 596.232C225.771 596.573 225.889 596.861 226.123 597.096C226.358 597.331 226.699 597.491 227.147 597.576C227.595 597.661 228.086 597.693 228.619 597.672ZM229.259 582.312C228.598 582.291 228.043 582.28 227.595 582.28C227.169 582.259 226.827 582.291 226.571 582.376C226.337 582.44 226.166 582.6 226.059 582.856C225.974 583.091 225.942 583.453 225.963 583.944C225.963 584.349 225.953 584.755 225.931 585.16C225.931 585.544 225.931 585.928 225.931 586.312C225.931 586.739 226.07 587.059 226.347 587.272C226.625 587.464 226.966 587.581 227.371 587.624C227.798 587.667 228.235 587.667 228.683 587.624C229.153 587.581 229.558 587.528 229.899 587.464C230.667 587.336 231.254 587.08 231.659 586.696C232.086 586.291 232.331 585.704 232.395 584.936C232.481 583.976 232.225 583.315 231.627 582.952C231.051 582.568 230.262 582.355 229.259 582.312ZM285.048 588.136C285.091 588.84 285.08 589.565 285.016 590.312C284.974 591.059 284.899 591.784 284.792 592.488C284.579 593.704 284.184 594.888 283.608 596.04C283.032 597.192 282.19 598.173 281.08 598.984C279.928 599.837 278.616 600.424 277.144 600.744C275.672 601.043 274.211 601.224 272.76 601.288C272.27 601.331 271.768 601.341 271.256 601.32C270.766 601.32 270.286 601.267 269.816 601.16C269.432 601.096 269.144 600.979 268.952 600.808C268.846 600.744 268.76 600.659 268.696 600.552C268.632 600.445 268.579 600.339 268.536 600.232C268.472 600.125 268.419 600.019 268.376 599.912C268.355 599.784 268.323 599.656 268.28 599.528C268.259 599.421 268.238 599.325 268.216 599.24C268.216 599.133 268.216 599.037 268.216 598.952V580.68C268.216 580.531 268.216 580.392 268.216 580.264C268.216 580.136 268.238 580.008 268.28 579.88C268.323 579.581 268.387 579.336 268.472 579.144C268.558 578.888 268.675 578.707 268.824 578.6C268.952 578.493 269.08 578.419 269.208 578.376C269.336 578.312 269.454 578.259 269.56 578.216C269.688 578.173 269.816 578.173 269.944 578.216C270.094 578.237 270.254 578.205 270.424 578.12L275.768 578.248C277.176 578.291 278.435 578.621 279.544 579.24C280.654 579.837 281.603 580.605 282.392 581.544C283.182 582.483 283.8 583.539 284.248 584.712C284.696 585.864 284.963 587.005 285.048 588.136ZM279.096 594.216C279.502 593.576 279.8 592.84 279.992 592.008C280.184 591.176 280.27 590.333 280.248 589.48C280.227 588.605 280.11 587.763 279.896 586.952C279.683 586.12 279.384 585.384 279 584.744C278.702 584.275 278.318 583.891 277.848 583.592C277.379 583.293 276.856 583.069 276.28 582.92C275.704 582.749 275.086 582.632 274.424 582.568C273.784 582.504 273.155 582.472 272.536 582.472C272.558 583.091 272.568 583.688 272.568 584.264C272.568 584.84 272.568 585.448 272.568 586.088C272.547 586.856 272.536 587.603 272.536 588.328C272.536 589.053 272.536 589.757 272.536 590.44V596.968C273.198 596.947 273.827 596.915 274.424 596.872C275.043 596.808 275.63 596.68 276.184 596.488C276.76 596.296 277.283 596.029 277.752 595.688C278.243 595.325 278.691 594.835 279.096 594.216ZM316.075 598.824C316.097 598.952 316.107 599.08 316.107 599.208C316.129 599.315 316.139 599.443 316.139 599.592C316.139 599.848 316.065 600.083 315.915 600.296C315.851 600.403 315.766 600.509 315.659 600.616C315.553 600.701 315.425 600.776 315.275 600.84C314.742 601.139 314.177 601.245 313.579 601.16C313.281 601.075 313.014 600.936 312.779 600.744C312.737 600.701 312.705 600.68 312.683 600.68C312.662 600.659 312.641 600.627 312.619 600.584C312.598 600.563 312.577 600.541 312.555 600.52C312.534 600.477 312.502 600.445 312.459 600.424C312.353 600.317 312.267 600.221 312.203 600.136C312.139 600.029 312.075 599.923 312.011 599.816C311.969 599.709 311.915 599.613 311.851 599.528C311.809 599.421 311.755 599.315 311.691 599.208C311.649 599.123 311.606 599.048 311.563 598.984C311.521 598.899 311.489 598.813 311.467 598.728C311.382 598.536 311.329 598.365 311.307 598.216L310.635 596.648C309.163 596.648 307.691 596.659 306.219 596.68C304.769 596.68 303.307 596.669 301.835 596.648L301.163 598.216C301.121 598.301 301.089 598.387 301.067 598.472C301.067 598.557 301.046 598.643 301.003 598.728C300.961 598.813 300.918 598.899 300.875 598.984C300.854 599.048 300.822 599.123 300.779 599.208C300.715 599.315 300.651 599.421 300.587 599.528C300.545 599.613 300.491 599.709 300.427 599.816C300.385 599.923 300.331 600.029 300.267 600.136C300.203 600.221 300.118 600.317 300.011 600.424C299.969 600.445 299.937 600.477 299.915 600.52C299.894 600.541 299.873 600.563 299.851 600.584C299.83 600.627 299.809 600.659 299.787 600.68C299.766 600.68 299.734 600.701 299.691 600.744C299.457 600.936 299.19 601.075 298.891 601.16C298.294 601.245 297.729 601.139 297.195 600.84C297.046 600.776 296.918 600.701 296.811 600.616C296.705 600.509 296.619 600.403 296.555 600.296C296.406 600.083 296.331 599.848 296.331 599.592C296.331 599.443 296.331 599.315 296.331 599.208C296.353 599.08 296.374 598.952 296.395 598.824C296.438 598.632 296.491 598.44 296.555 598.248C296.619 598.056 296.651 597.96 296.651 597.96L303.307 581.576L303.499 581.064C303.542 580.936 303.595 580.819 303.659 580.712C303.723 580.605 303.777 580.477 303.819 580.328C303.926 580.051 304.043 579.805 304.171 579.592C304.235 579.464 304.31 579.347 304.395 579.24C304.481 579.133 304.566 579.027 304.651 578.92C304.779 578.749 304.961 578.611 305.195 578.504C305.494 578.397 305.835 578.344 306.219 578.344C306.625 578.344 306.977 578.397 307.275 578.504C307.51 578.611 307.691 578.749 307.819 578.92C307.969 579.112 308.129 579.336 308.299 579.592C308.427 579.805 308.545 580.051 308.651 580.328C308.694 580.477 308.747 580.605 308.811 580.712C308.875 580.819 308.929 580.936 308.971 581.064L309.163 581.576L315.819 597.96C315.819 597.96 315.851 598.056 315.915 598.248C315.979 598.44 316.033 598.632 316.075 598.824ZM308.491 590.984C308.214 590.365 307.926 589.725 307.627 589.064C307.35 588.403 307.051 587.731 306.731 587.048C306.646 586.856 306.561 586.664 306.475 586.472C306.39 586.259 306.305 586.056 306.219 585.864C306.155 586.056 306.081 586.259 305.995 586.472C305.91 586.664 305.825 586.856 305.739 587.048C305.419 587.731 305.11 588.403 304.811 589.064C304.534 589.725 304.257 590.365 303.979 590.984L303.403 592.392H309.067L308.491 590.984ZM342.454 579.336C342.689 579.613 342.806 579.901 342.806 580.2C342.806 580.328 342.795 580.467 342.774 580.616C342.774 580.744 342.763 580.861 342.742 580.968C342.678 581.203 342.539 581.427 342.326 581.64C342.155 581.768 341.921 581.864 341.622 581.928C341.473 581.971 341.323 582.003 341.174 582.024C341.025 582.045 340.865 582.077 340.694 582.12C340.545 582.141 340.395 582.152 340.246 582.152C340.097 582.152 339.937 582.152 339.766 582.152H338.134C337.75 582.173 337.366 582.184 336.982 582.184C336.619 582.184 336.257 582.184 335.894 582.184C335.915 582.845 335.926 583.56 335.926 584.328C335.926 585.075 335.915 585.949 335.894 586.952C335.894 587.955 335.883 589.117 335.862 590.44C335.862 591.763 335.862 593.299 335.862 595.048V597.48C335.862 597.693 335.873 597.853 335.894 597.96C335.894 598.045 335.894 598.131 335.894 598.216C335.894 598.28 335.883 598.365 335.862 598.472C335.819 598.664 335.787 598.888 335.766 599.144C335.766 599.251 335.755 599.357 335.734 599.464C335.713 599.549 335.681 599.645 335.638 599.752C335.553 599.837 335.51 599.901 335.51 599.944L335.414 600.136C335.307 600.349 335.105 600.552 334.806 600.744C334.337 600.979 333.814 601.032 333.238 600.904C332.875 600.861 332.598 600.765 332.406 600.616C332.214 600.424 332.075 600.232 331.99 600.04C331.862 599.805 331.787 599.581 331.766 599.368C331.702 599.176 331.67 598.973 331.67 598.76V582.312C331.542 582.312 331.275 582.312 330.87 582.312C330.465 582.312 330.027 582.312 329.558 582.312C329.11 582.291 328.683 582.269 328.278 582.248C327.873 582.227 327.595 582.205 327.446 582.184C327.318 582.163 327.115 582.131 326.838 582.088C326.582 582.045 326.369 582.003 326.198 581.96C325.75 581.832 325.398 581.629 325.142 581.352C324.907 581.075 324.79 580.765 324.79 580.424C324.79 580.296 324.79 580.168 324.79 580.04C324.79 579.912 324.811 579.795 324.854 579.688C324.918 579.432 325.089 579.219 325.366 579.048C325.451 578.984 325.579 578.909 325.75 578.824C325.942 578.717 326.123 578.643 326.294 578.6C326.55 578.515 326.87 578.451 327.254 578.408C327.425 578.387 327.595 578.376 327.766 578.376C327.937 578.376 328.118 578.376 328.31 578.376C329.057 578.376 329.761 578.376 330.422 578.376C331.105 578.376 331.819 578.365 332.566 578.344C333.803 578.323 335.03 578.323 336.246 578.344C337.483 578.344 338.71 578.365 339.926 578.408C340.203 578.429 340.47 578.461 340.726 578.504C340.982 578.547 341.238 578.621 341.494 578.728C341.686 578.792 341.867 578.877 342.038 578.984C342.209 579.069 342.347 579.187 342.454 579.336ZM371.18 598.824C371.202 598.952 371.212 599.08 371.212 599.208C371.234 599.315 371.244 599.443 371.244 599.592C371.244 599.848 371.17 600.083 371.02 600.296C370.956 600.403 370.871 600.509 370.764 600.616C370.658 600.701 370.53 600.776 370.38 600.84C369.847 601.139 369.282 601.245 368.684 601.16C368.386 601.075 368.119 600.936 367.884 600.744C367.842 600.701 367.81 600.68 367.788 600.68C367.767 600.659 367.746 600.627 367.724 600.584C367.703 600.563 367.682 600.541 367.66 600.52C367.639 600.477 367.607 600.445 367.564 600.424C367.458 600.317 367.372 600.221 367.308 600.136C367.244 600.029 367.18 599.923 367.116 599.816C367.074 599.709 367.02 599.613 366.956 599.528C366.914 599.421 366.86 599.315 366.796 599.208C366.754 599.123 366.711 599.048 366.668 598.984C366.626 598.899 366.594 598.813 366.572 598.728C366.487 598.536 366.434 598.365 366.412 598.216L365.74 596.648C364.268 596.648 362.796 596.659 361.324 596.68C359.874 596.68 358.412 596.669 356.94 596.648L356.268 598.216C356.226 598.301 356.194 598.387 356.172 598.472C356.172 598.557 356.151 598.643 356.108 598.728C356.066 598.813 356.023 598.899 355.98 598.984C355.959 599.048 355.927 599.123 355.884 599.208C355.82 599.315 355.756 599.421 355.692 599.528C355.65 599.613 355.596 599.709 355.532 599.816C355.49 599.923 355.436 600.029 355.372 600.136C355.308 600.221 355.223 600.317 355.116 600.424C355.074 600.445 355.042 600.477 355.02 600.52C354.999 600.541 354.978 600.563 354.956 600.584C354.935 600.627 354.914 600.659 354.892 600.68C354.871 600.68 354.839 600.701 354.796 600.744C354.562 600.936 354.295 601.075 353.996 601.16C353.399 601.245 352.834 601.139 352.3 600.84C352.151 600.776 352.023 600.701 351.916 600.616C351.81 600.509 351.724 600.403 351.66 600.296C351.511 600.083 351.436 599.848 351.436 599.592C351.436 599.443 351.436 599.315 351.436 599.208C351.458 599.08 351.479 598.952 351.5 598.824C351.543 598.632 351.596 598.44 351.66 598.248C351.724 598.056 351.756 597.96 351.756 597.96L358.412 581.576L358.604 581.064C358.647 580.936 358.7 580.819 358.764 580.712C358.828 580.605 358.882 580.477 358.924 580.328C359.031 580.051 359.148 579.805 359.276 579.592C359.34 579.464 359.415 579.347 359.5 579.24C359.586 579.133 359.671 579.027 359.756 578.92C359.884 578.749 360.066 578.611 360.3 578.504C360.599 578.397 360.94 578.344 361.324 578.344C361.73 578.344 362.082 578.397 362.38 578.504C362.615 578.611 362.796 578.749 362.924 578.92C363.074 579.112 363.234 579.336 363.404 579.592C363.532 579.805 363.65 580.051 363.756 580.328C363.799 580.477 363.852 580.605 363.916 580.712C363.98 580.819 364.034 580.936 364.076 581.064L364.268 581.576L370.924 597.96C370.924 597.96 370.956 598.056 371.02 598.248C371.084 598.44 371.138 598.632 371.18 598.824ZM363.596 590.984C363.319 590.365 363.031 589.725 362.732 589.064C362.455 588.403 362.156 587.731 361.836 587.048C361.751 586.856 361.666 586.664 361.58 586.472C361.495 586.259 361.41 586.056 361.324 585.864C361.26 586.056 361.186 586.259 361.1 586.472C361.015 586.664 360.93 586.856 360.844 587.048C360.524 587.731 360.215 588.403 359.916 589.064C359.639 589.725 359.362 590.365 359.084 590.984L358.508 592.392H364.172L363.596 590.984ZM400.627 591.688C400.734 591.987 400.809 592.328 400.851 592.712C400.915 593.075 400.947 593.448 400.947 593.832C400.947 594.216 400.915 594.6 400.851 594.984C400.809 595.347 400.745 595.667 400.659 595.944C400.318 597.139 399.635 598.141 398.611 598.952C397.587 599.741 396.414 600.317 395.091 600.68C393.79 601.043 392.435 601.171 391.027 601.064C389.641 600.957 388.403 600.605 387.315 600.008C386.633 599.624 386.046 599.155 385.555 598.6C385.065 598.045 384.649 597.427 384.307 596.744C384.179 596.509 384.094 596.243 384.051 595.944C384.03 595.624 384.062 595.325 384.147 595.048C384.233 594.749 384.371 594.493 384.563 594.28C384.755 594.045 385.022 593.885 385.363 593.8C385.577 593.757 385.811 593.736 386.067 593.736C386.345 593.736 386.611 593.779 386.867 593.864C387.123 593.928 387.358 594.045 387.571 594.216C387.785 594.365 387.955 594.579 388.083 594.856C388.318 595.304 388.649 595.72 389.075 596.104C389.523 596.467 389.993 596.765 390.483 597C391.187 597.235 391.891 597.331 392.595 597.288C393.321 597.245 393.971 597.085 394.547 596.808C395.145 596.531 395.625 596.157 395.987 595.688C396.35 595.197 396.531 594.643 396.531 594.024C396.531 593.512 396.457 593.096 396.307 592.776C396.158 592.435 395.945 592.157 395.667 591.944C395.411 591.709 395.091 591.517 394.707 591.368C394.345 591.219 393.939 591.091 393.491 590.984C392.979 590.877 392.457 590.803 391.923 590.76C391.411 590.717 390.889 590.664 390.355 590.6C389.822 590.536 389.299 590.451 388.787 590.344C388.275 590.237 387.774 590.077 387.283 589.864C386.302 589.459 385.555 588.84 385.043 588.008C384.531 587.176 384.222 586.28 384.115 585.32C384.03 584.36 384.147 583.411 384.467 582.472C384.787 581.512 385.299 580.691 386.003 580.008C386.686 579.389 387.497 578.952 388.435 578.696C389.395 578.419 390.451 578.259 391.603 578.216C392.243 578.195 392.883 578.216 393.523 578.28C394.185 578.344 394.814 578.451 395.411 578.6C396.03 578.749 396.595 578.941 397.107 579.176C397.641 579.411 398.099 579.688 398.483 580.008C398.761 580.221 399.038 580.509 399.315 580.872C399.593 581.213 399.806 581.587 399.955 581.992C400.105 582.376 400.147 582.749 400.083 583.112C400.041 583.475 399.817 583.784 399.411 584.04C399.07 584.253 398.739 584.349 398.419 584.328C398.121 584.285 397.833 584.189 397.555 584.04C397.278 583.869 397.011 583.677 396.755 583.464C396.499 583.251 396.265 583.059 396.051 582.888C395.475 582.461 394.761 582.173 393.907 582.024C393.054 581.875 392.254 581.843 391.507 581.928C391.038 581.992 390.601 582.099 390.195 582.248C389.79 582.397 389.438 582.6 389.139 582.856C388.862 583.112 388.638 583.432 388.467 583.816C388.318 584.179 388.265 584.595 388.307 585.064C388.329 585.405 388.425 585.693 388.595 585.928C388.787 586.163 389.011 586.355 389.267 586.504C389.545 586.653 389.843 586.771 390.163 586.856C390.483 586.941 390.803 587.005 391.123 587.048C392.083 587.176 393.043 587.272 394.003 587.336C394.963 587.4 395.902 587.613 396.819 587.976C397.758 588.339 398.558 588.829 399.219 589.448C399.881 590.067 400.35 590.813 400.627 591.688ZM430.143 579.336C430.377 579.613 430.495 579.901 430.495 580.2C430.495 580.328 430.484 580.467 430.463 580.616C430.463 580.744 430.452 580.861 430.431 580.968C430.367 581.203 430.228 581.427 430.015 581.64C429.844 581.768 429.609 581.864 429.311 581.928C429.161 581.971 429.012 582.003 428.863 582.024C428.713 582.045 428.553 582.077 428.383 582.12C428.233 582.141 428.084 582.152 427.935 582.152C427.785 582.152 427.625 582.152 427.455 582.152H425.823C425.439 582.173 425.055 582.184 424.671 582.184C424.308 582.184 423.945 582.184 423.583 582.184C423.604 582.845 423.615 583.56 423.615 584.328C423.615 585.075 423.604 585.949 423.583 586.952C423.583 587.955 423.572 589.117 423.551 590.44C423.551 591.763 423.551 593.299 423.551 595.048V597.48C423.551 597.693 423.561 597.853 423.583 597.96C423.583 598.045 423.583 598.131 423.583 598.216C423.583 598.28 423.572 598.365 423.551 598.472C423.508 598.664 423.476 598.888 423.455 599.144C423.455 599.251 423.444 599.357 423.423 599.464C423.401 599.549 423.369 599.645 423.327 599.752C423.241 599.837 423.199 599.901 423.199 599.944L423.103 600.136C422.996 600.349 422.793 600.552 422.495 600.744C422.025 600.979 421.503 601.032 420.927 600.904C420.564 600.861 420.287 600.765 420.095 600.616C419.903 600.424 419.764 600.232 419.679 600.04C419.551 599.805 419.476 599.581 419.455 599.368C419.391 599.176 419.359 598.973 419.359 598.76V582.312C419.231 582.312 418.964 582.312 418.559 582.312C418.153 582.312 417.716 582.312 417.247 582.312C416.799 582.291 416.372 582.269 415.967 582.248C415.561 582.227 415.284 582.205 415.135 582.184C415.007 582.163 414.804 582.131 414.527 582.088C414.271 582.045 414.057 582.003 413.887 581.96C413.439 581.832 413.087 581.629 412.831 581.352C412.596 581.075 412.479 580.765 412.479 580.424C412.479 580.296 412.479 580.168 412.479 580.04C412.479 579.912 412.5 579.795 412.543 579.688C412.607 579.432 412.777 579.219 413.055 579.048C413.14 578.984 413.268 578.909 413.439 578.824C413.631 578.717 413.812 578.643 413.983 578.6C414.239 578.515 414.559 578.451 414.943 578.408C415.113 578.387 415.284 578.376 415.455 578.376C415.625 578.376 415.807 578.376 415.999 578.376C416.745 578.376 417.449 578.376 418.111 578.376C418.793 578.376 419.508 578.365 420.255 578.344C421.492 578.323 422.719 578.323 423.935 578.344C425.172 578.344 426.399 578.365 427.615 578.408C427.892 578.429 428.159 578.461 428.415 578.504C428.671 578.547 428.927 578.621 429.183 578.728C429.375 578.792 429.556 578.877 429.727 578.984C429.897 579.069 430.036 579.187 430.143 579.336ZM447.039 579.112C448.468 578.579 449.759 578.344 450.911 578.408C452.084 578.472 453.13 578.771 454.047 579.304C454.964 579.816 455.743 580.509 456.383 581.384C457.044 582.259 457.578 583.24 457.983 584.328C458.303 585.139 458.548 585.992 458.719 586.888C458.89 587.784 458.986 588.68 459.007 589.576C459.05 590.451 459.018 591.315 458.911 592.168C458.826 593.021 458.676 593.811 458.463 594.536C458.335 595.027 458.186 595.475 458.015 595.88C457.844 596.285 457.642 596.691 457.407 597.096C456.874 598.013 456.18 598.76 455.327 599.336C454.495 599.912 453.578 600.317 452.575 600.552C451.892 600.723 451.188 600.808 450.463 600.808C449.738 600.787 449.023 600.691 448.319 600.52C447.615 600.328 446.932 600.061 446.271 599.72C445.631 599.357 445.044 598.909 444.511 598.376C443.85 597.736 443.306 597 442.879 596.168C442.452 595.315 442.122 594.429 441.887 593.512C441.652 592.573 441.503 591.635 441.439 590.696C441.375 589.757 441.375 588.861 441.439 588.008C441.503 587.219 441.652 586.376 441.887 585.48C442.143 584.584 442.506 583.72 442.975 582.888C443.444 582.056 444.01 581.309 444.671 580.648C445.354 579.965 446.143 579.453 447.039 579.112ZM454.527 592.808C454.783 591.805 454.89 590.675 454.847 589.416C454.804 588.157 454.602 586.973 454.239 585.864C454.004 585.181 453.706 584.584 453.343 584.072C453.002 583.539 452.586 583.133 452.095 582.856C451.626 582.579 451.071 582.44 450.431 582.44C449.791 582.44 449.076 582.632 448.287 583.016C447.818 583.251 447.412 583.571 447.071 583.976C446.751 584.381 446.484 584.84 446.271 585.352C446.079 585.864 445.919 586.397 445.791 586.952C445.684 587.507 445.62 588.04 445.599 588.552C445.556 589.107 445.546 589.693 445.567 590.312C445.588 590.909 445.652 591.517 445.759 592.136C445.887 592.733 446.058 593.309 446.271 593.864C446.484 594.397 446.772 594.877 447.135 595.304C447.69 595.944 448.33 596.392 449.055 596.648C449.802 596.883 450.538 596.915 451.263 596.744C452.436 596.488 453.332 595.709 453.951 594.408C454.207 593.939 454.399 593.405 454.527 592.808ZM488.377 599.592C488.398 599.805 488.377 600.008 488.313 600.2C488.27 600.328 488.206 600.435 488.121 600.52C488.057 600.605 487.972 600.691 487.865 600.776C487.673 600.904 487.438 601.021 487.161 601.128C486.99 601.171 486.82 601.203 486.649 601.224C486.5 601.267 486.34 601.267 486.169 601.224C485.828 601.203 485.529 601.075 485.273 600.84C484.91 600.541 484.612 600.211 484.377 599.848C484.27 599.677 484.153 599.485 484.025 599.272C483.897 599.059 483.78 598.835 483.673 598.6L480.121 591.848C479.95 591.848 479.78 591.859 479.609 591.88C479.438 591.88 479.268 591.891 479.097 591.912C478.649 591.955 478.222 591.965 477.817 591.944C477.433 591.923 477.028 591.923 476.601 591.944H475.993V597.736C475.993 597.907 475.982 598.067 475.961 598.216C475.961 598.365 475.961 598.525 475.961 598.696C475.961 598.803 475.95 598.941 475.929 599.112C475.929 599.283 475.918 599.443 475.897 599.592C475.854 599.827 475.758 600.072 475.609 600.328C475.46 600.563 475.257 600.765 475.001 600.936C474.553 601.213 474.009 601.288 473.369 601.16C473.092 601.096 472.825 600.989 472.569 600.84C472.484 600.776 472.409 600.701 472.345 600.616C472.281 600.509 472.228 600.403 472.185 600.296C472.142 600.189 472.1 600.083 472.057 599.976C472.036 599.848 472.004 599.731 471.961 599.624C471.897 599.411 471.865 599.208 471.865 599.016V580.84C471.865 580.712 471.865 580.584 471.865 580.456C471.886 580.307 471.908 580.179 471.929 580.072C471.95 579.837 472.025 579.603 472.153 579.368C472.217 579.112 472.324 578.931 472.473 578.824C472.601 578.696 472.793 578.589 473.049 578.504C473.326 578.397 473.721 578.355 474.233 578.376C475.193 578.397 476.142 578.408 477.081 578.408C478.02 578.408 478.958 578.429 479.897 578.472C480.516 578.515 481.166 578.589 481.849 578.696C482.553 578.781 483.204 578.941 483.801 579.176C484.185 579.325 484.537 579.475 484.857 579.624C485.262 579.859 485.582 580.083 485.817 580.296C486.564 580.979 487.129 581.8 487.513 582.76C487.897 583.72 488.089 584.691 488.089 585.672C488.089 586.824 487.812 587.88 487.257 588.84C486.724 589.8 485.86 590.515 484.665 590.984C484.622 591.027 484.558 591.059 484.473 591.08C484.409 591.08 484.356 591.091 484.313 591.112L487.257 597.032L487.545 597.544C487.588 597.629 487.641 597.725 487.705 597.832C487.769 597.939 487.822 598.045 487.865 598.152C487.929 598.259 487.982 598.376 488.025 598.504C488.089 598.632 488.153 598.749 488.217 598.856C488.281 599.155 488.334 599.4 488.377 599.592ZM480.377 588.2C480.761 588.2 481.124 588.136 481.465 588.008C481.828 587.859 482.148 587.667 482.425 587.432C482.724 587.197 482.969 586.931 483.161 586.632C483.353 586.312 483.46 585.971 483.481 585.608C483.566 584.541 483.289 583.752 482.649 583.24C482.009 582.707 481.166 582.419 480.121 582.376C479.502 582.333 478.82 582.312 478.073 582.312C477.348 582.312 476.654 582.312 475.993 582.312C476.014 583.187 476.014 584.083 475.993 585C475.993 585.896 475.993 586.963 475.993 588.2H480.377ZM505.583 582.184L505.519 587.208H506.799C507.673 587.187 508.452 587.176 509.135 587.176C509.817 587.176 510.575 587.187 511.407 587.208H511.567C511.823 587.208 512.068 587.219 512.303 587.24C512.559 587.24 512.804 587.24 513.039 587.24C513.295 587.261 513.54 587.304 513.775 587.368C514.009 587.411 514.244 587.464 514.479 587.528C514.841 587.656 515.14 587.848 515.375 588.104C515.588 588.381 515.695 588.691 515.695 589.032C515.695 589.139 515.695 589.267 515.695 589.416C515.695 589.544 515.673 589.661 515.631 589.768C515.588 590.003 515.449 590.216 515.215 590.408C515.108 590.557 514.905 590.664 514.607 590.728C514.329 590.813 514.052 590.867 513.775 590.888C513.476 590.952 513.177 590.984 512.879 590.984H511.375L505.455 591.016L505.391 597.288L511.759 597.352H513.263C513.433 597.352 513.593 597.352 513.743 597.352C513.892 597.352 514.031 597.363 514.159 597.384C514.329 597.427 514.479 597.459 514.607 597.48C514.756 597.48 514.895 597.501 515.023 597.544C515.279 597.629 515.492 597.747 515.663 597.896C515.876 598.109 516.015 598.333 516.079 598.568C516.1 598.675 516.111 598.792 516.111 598.92C516.132 599.027 516.132 599.144 516.111 599.272C516.111 599.613 516.004 599.923 515.791 600.2C515.535 600.499 515.236 600.691 514.895 600.776C514.447 600.968 513.956 601.064 513.423 601.064C513.188 601.085 512.943 601.096 512.687 601.096C512.431 601.096 512.185 601.107 511.951 601.128H511.759C510.095 601.171 508.367 601.171 506.575 601.128C506.148 601.128 505.807 601.117 505.551 601.096C505.295 601.096 505.06 601.096 504.847 601.096C504.655 601.096 504.452 601.096 504.239 601.096C504.025 601.096 503.748 601.096 503.407 601.096C502.916 601.139 502.511 601.053 502.191 600.84C501.956 600.691 501.775 600.488 501.647 600.232C501.583 600.168 501.551 600.104 501.551 600.04C501.529 599.997 501.508 599.965 501.487 599.944C501.465 599.923 501.444 599.891 501.423 599.848C501.38 599.741 501.348 599.635 501.327 599.528C501.305 599.4 501.295 599.283 501.295 599.176C501.273 599.069 501.252 598.963 501.231 598.856C501.231 598.749 501.22 598.643 501.199 598.536V598.024C501.199 597.939 501.199 597.853 501.199 597.768C501.22 597.683 501.231 597.597 501.231 597.512V595.016L501.295 590.408V586.152C501.295 585.384 501.295 584.701 501.295 584.104C501.316 583.507 501.337 582.856 501.359 582.152V581.992C501.38 581.757 501.391 581.544 501.391 581.352C501.412 581.139 501.423 580.925 501.423 580.712C501.444 580.285 501.561 579.869 501.775 579.464C501.86 579.293 501.945 579.144 502.031 579.016C502.137 578.888 502.276 578.781 502.447 578.696C502.767 578.504 503.097 578.408 503.439 578.408C503.609 578.408 503.737 578.419 503.823 578.44V578.408C504.207 578.408 504.516 578.408 504.751 578.408C504.985 578.408 505.209 578.408 505.423 578.408C505.657 578.408 505.903 578.408 506.159 578.408C506.415 578.387 506.767 578.376 507.215 578.376C508.068 578.355 508.879 578.344 509.647 578.344C510.415 578.344 511.204 578.355 512.015 578.376H512.143C512.377 578.397 512.623 578.408 512.879 578.408C513.135 578.408 513.38 578.419 513.615 578.44C513.849 578.44 514.084 578.472 514.319 578.536C514.553 578.579 514.788 578.643 515.023 578.728C515.385 578.835 515.684 579.016 515.919 579.272C516.111 579.571 516.207 579.869 516.207 580.168C516.207 580.296 516.207 580.424 516.207 580.552C516.207 580.659 516.185 580.765 516.143 580.872C516.121 581.085 515.993 581.309 515.759 581.544C515.673 581.587 515.577 581.64 515.471 581.704C515.385 581.768 515.279 581.821 515.151 581.864C515.023 581.907 514.884 581.939 514.735 581.96C514.607 581.96 514.479 581.971 514.351 581.992C514.18 582.035 514.02 582.056 513.871 582.056C513.743 582.056 513.593 582.056 513.423 582.056H511.983L505.583 582.088V582.184ZM232.322 620.36C233.132 621.107 233.73 622.003 234.114 623.048C234.498 624.072 234.647 625.096 234.562 626.12C234.476 627.101 234.167 628.008 233.634 628.84C233.1 629.651 232.29 630.269 231.202 630.696C230.348 631.059 229.506 631.315 228.674 631.464C227.842 631.613 226.924 631.731 225.922 631.816C225.474 631.859 225.09 631.891 224.77 631.912C224.471 631.912 224.119 631.923 223.714 631.944C223.628 631.944 223.479 631.944 223.266 631.944C223.074 631.944 222.935 631.955 222.85 631.976V638.6C222.786 639.005 222.7 639.421 222.594 639.848C222.508 640.275 222.263 640.605 221.858 640.84C221.623 640.968 221.335 641.043 220.994 641.064C220.652 641.085 220.343 641.075 220.066 641.032C219.767 640.989 219.511 640.915 219.298 640.808C219.106 640.68 218.946 640.467 218.818 640.168C218.732 639.976 218.647 639.763 218.562 639.528C218.498 639.272 218.466 638.963 218.466 638.6V620.904C218.466 620.755 218.476 620.616 218.498 620.488C218.519 620.36 218.54 620.232 218.562 620.104C218.604 619.997 218.636 619.88 218.658 619.752C218.679 619.624 218.711 619.507 218.754 619.4C218.796 619.293 218.839 619.197 218.882 619.112C218.946 619.027 219.02 618.952 219.106 618.888C219.212 618.781 219.372 618.685 219.586 618.6C219.82 618.515 220.162 618.472 220.61 618.472H220.674C221.335 618.429 222.071 618.397 222.882 618.376C223.692 618.333 224.364 618.344 224.898 618.408C225.196 618.451 225.474 618.483 225.73 618.504C225.986 618.504 226.231 618.515 226.466 618.536C226.722 618.557 226.978 618.579 227.234 618.6C227.49 618.621 227.746 618.653 228.002 618.696C228.215 618.739 228.407 618.771 228.578 618.792C228.77 618.813 228.962 618.845 229.154 618.888C229.324 618.931 229.506 618.973 229.698 619.016C229.911 619.059 230.103 619.133 230.274 619.24C230.722 619.368 231.095 619.528 231.394 619.72C231.692 619.912 232.002 620.125 232.322 620.36ZM230.402 625.64C230.423 625.128 230.316 624.68 230.082 624.296C229.868 623.912 229.559 623.592 229.154 623.336C228.748 623.08 228.29 622.877 227.778 622.728C227.266 622.579 226.754 622.472 226.242 622.408C226.114 622.408 225.932 622.408 225.698 622.408C225.484 622.387 225.25 622.376 224.994 622.376C224.738 622.355 224.492 622.344 224.258 622.344C224.044 622.323 223.874 622.312 223.746 622.312C223.639 622.291 223.511 622.28 223.362 622.28C223.212 622.28 223.042 622.28 222.85 622.28C222.871 622.941 222.882 623.581 222.882 624.2C222.882 624.797 222.882 625.448 222.882 626.152C222.86 626.536 222.85 626.92 222.85 627.304C222.85 627.688 222.85 628.061 222.85 628.424L224.834 628.392C225.346 628.392 225.911 628.36 226.53 628.296C227.148 628.232 227.735 628.104 228.29 627.912C228.844 627.72 229.314 627.443 229.698 627.08C230.103 626.717 230.338 626.237 230.402 625.64ZM262.208 638.568C262.251 638.675 262.272 638.835 262.272 639.048C262.272 639.24 262.272 639.4 262.272 639.528C262.272 639.699 262.24 639.859 262.176 640.008C262.112 640.157 262.027 640.296 261.92 640.424C261.728 640.68 261.451 640.872 261.088 641C260.576 641.171 260.096 641.256 259.648 641.256C259.414 641.277 259.168 641.288 258.912 641.288C258.656 641.288 258.4 641.309 258.144 641.352H258.016C256.374 641.373 254.678 641.373 252.928 641.352C252.502 641.331 252.022 641.331 251.488 641.352C250.955 641.395 250.432 641.384 249.92 641.32C249.408 641.277 248.939 641.16 248.512 640.968C248.107 640.755 247.819 640.424 247.648 639.976C247.606 639.869 247.574 639.773 247.552 639.688C247.531 639.581 247.52 639.475 247.52 639.368C247.435 638.643 247.403 637.928 247.424 637.224C247.446 636.52 247.456 635.827 247.456 635.144L247.52 630.504V626.216C247.52 625.448 247.52 624.765 247.52 624.168C247.542 623.571 247.563 622.909 247.584 622.184V622.024C247.606 621.811 247.616 621.597 247.616 621.384C247.638 621.171 247.648 620.957 247.648 620.744C247.691 620.253 247.808 619.837 248 619.496C248.128 619.176 248.352 618.92 248.672 618.728C248.95 618.536 249.28 618.44 249.664 618.44C249.814 618.44 249.952 618.451 250.08 618.472C250.23 618.472 250.368 618.483 250.496 618.504C250.624 618.525 250.742 618.568 250.848 618.632C250.976 618.696 251.104 618.781 251.232 618.888C251.36 619.037 251.478 619.219 251.584 619.432C251.67 619.667 251.723 619.901 251.744 620.136C251.766 620.285 251.787 620.424 251.808 620.552C251.83 620.68 251.84 620.808 251.84 620.936C251.798 621.064 251.776 621.192 251.776 621.32C251.776 621.448 251.776 621.565 251.776 621.672V622.248L251.648 637.32L257.984 637.384H259.488C259.616 637.384 259.755 637.395 259.904 637.416C260.054 637.416 260.203 637.427 260.352 637.448C260.523 637.469 260.672 637.491 260.8 637.512C260.928 637.533 261.056 637.565 261.184 637.608C261.419 637.672 261.611 637.779 261.76 637.928C261.995 638.141 262.144 638.355 262.208 638.568ZM294.815 638.824C294.836 638.952 294.847 639.08 294.847 639.208C294.868 639.315 294.879 639.443 294.879 639.592C294.879 639.848 294.804 640.083 294.655 640.296C294.591 640.403 294.505 640.509 294.399 640.616C294.292 640.701 294.164 640.776 294.015 640.84C293.481 641.139 292.916 641.245 292.319 641.16C292.02 641.075 291.753 640.936 291.519 640.744C291.476 640.701 291.444 640.68 291.423 640.68C291.401 640.659 291.38 640.627 291.359 640.584C291.337 640.563 291.316 640.541 291.295 640.52C291.273 640.477 291.241 640.445 291.199 640.424C291.092 640.317 291.007 640.221 290.943 640.136C290.879 640.029 290.815 639.923 290.751 639.816C290.708 639.709 290.655 639.613 290.591 639.528C290.548 639.421 290.495 639.315 290.431 639.208C290.388 639.123 290.345 639.048 290.303 638.984C290.26 638.899 290.228 638.813 290.207 638.728C290.121 638.536 290.068 638.365 290.047 638.216L289.375 636.648C287.903 636.648 286.431 636.659 284.959 636.68C283.508 636.68 282.047 636.669 280.575 636.648L279.903 638.216C279.86 638.301 279.828 638.387 279.807 638.472C279.807 638.557 279.785 638.643 279.743 638.728C279.7 638.813 279.657 638.899 279.615 638.984C279.593 639.048 279.561 639.123 279.519 639.208C279.455 639.315 279.391 639.421 279.327 639.528C279.284 639.613 279.231 639.709 279.167 639.816C279.124 639.923 279.071 640.029 279.007 640.136C278.943 640.221 278.857 640.317 278.751 640.424C278.708 640.445 278.676 640.477 278.655 640.52C278.633 640.541 278.612 640.563 278.591 640.584C278.569 640.627 278.548 640.659 278.527 640.68C278.505 640.68 278.473 640.701 278.431 640.744C278.196 640.936 277.929 641.075 277.631 641.16C277.033 641.245 276.468 641.139 275.935 640.84C275.785 640.776 275.657 640.701 275.551 640.616C275.444 640.509 275.359 640.403 275.295 640.296C275.145 640.083 275.071 639.848 275.071 639.592C275.071 639.443 275.071 639.315 275.071 639.208C275.092 639.08 275.113 638.952 275.135 638.824C275.177 638.632 275.231 638.44 275.295 638.248C275.359 638.056 275.391 637.96 275.391 637.96L282.047 621.576L282.239 621.064C282.281 620.936 282.335 620.819 282.399 620.712C282.463 620.605 282.516 620.477 282.559 620.328C282.665 620.051 282.783 619.805 282.911 619.592C282.975 619.464 283.049 619.347 283.135 619.24C283.22 619.133 283.305 619.027 283.391 618.92C283.519 618.749 283.7 618.611 283.935 618.504C284.233 618.397 284.575 618.344 284.959 618.344C285.364 618.344 285.716 618.397 286.015 618.504C286.249 618.611 286.431 618.749 286.559 618.92C286.708 619.112 286.868 619.336 287.039 619.592C287.167 619.805 287.284 620.051 287.391 620.328C287.433 620.477 287.487 620.605 287.551 620.712C287.615 620.819 287.668 620.936 287.711 621.064L287.903 621.576L294.559 637.96C294.559 637.96 294.591 638.056 294.655 638.248C294.719 638.44 294.772 638.632 294.815 638.824ZM287.231 630.984C286.953 630.365 286.665 629.725 286.367 629.064C286.089 628.403 285.791 627.731 285.471 627.048C285.385 626.856 285.3 626.664 285.215 626.472C285.129 626.259 285.044 626.056 284.959 625.864C284.895 626.056 284.82 626.259 284.735 626.472C284.649 626.664 284.564 626.856 284.479 627.048C284.159 627.731 283.849 628.403 283.551 629.064C283.273 629.725 282.996 630.365 282.719 630.984L282.143 632.392H287.807L287.231 630.984ZM321.714 619.72C321.735 619.827 321.735 619.933 321.714 620.04C321.714 620.147 321.682 620.264 321.618 620.392C321.533 620.691 321.437 620.957 321.33 621.192C321.202 621.491 321.042 621.747 320.85 621.96C320.765 622.088 320.679 622.216 320.594 622.344C320.53 622.451 320.466 622.557 320.402 622.664L319.986 623.208L315.89 629.128L315.154 630.056V638.568C315.111 638.675 315.09 638.781 315.09 638.888C315.09 638.995 315.079 639.112 315.058 639.24C315.015 639.347 314.983 639.453 314.962 639.56C314.941 639.645 314.909 639.741 314.866 639.848C314.823 639.933 314.802 639.997 314.802 640.04C314.781 640.083 314.759 640.115 314.738 640.136C314.738 640.157 314.727 640.189 314.706 640.232C314.578 640.445 314.397 640.637 314.162 640.808C313.693 641.043 313.159 641.096 312.562 640.968C312.221 640.925 311.965 640.819 311.794 640.648C311.687 640.584 311.602 640.509 311.538 640.424C311.474 640.339 311.41 640.243 311.346 640.136C311.303 640.008 311.261 639.891 311.218 639.784C311.175 639.677 311.143 639.571 311.122 639.464C311.079 639.357 311.058 639.261 311.058 639.176C311.058 639.069 311.058 638.973 311.058 638.888V630.152L310.354 629.064L306.194 623.176L305.842 622.6C305.714 622.408 305.554 622.184 305.362 621.928C305.191 621.693 305.042 621.437 304.914 621.16C304.829 621.032 304.754 620.904 304.69 620.776C304.647 620.627 304.605 620.477 304.562 620.328C304.498 620.115 304.487 619.901 304.53 619.688C304.594 619.411 304.722 619.176 304.914 618.984C305.127 618.792 305.351 618.643 305.586 618.536C305.885 618.323 306.226 618.237 306.61 618.28C306.845 618.28 307.047 618.323 307.218 618.408C307.389 618.493 307.559 618.589 307.73 618.696C307.922 618.845 308.103 619.005 308.274 619.176C308.466 619.347 308.637 619.528 308.786 619.72C308.957 619.933 309.117 620.136 309.266 620.328C309.415 620.499 309.565 620.701 309.714 620.936L309.81 621.064C310.322 621.747 310.802 622.408 311.25 623.048C311.698 623.667 312.167 624.339 312.658 625.064C312.701 625.107 312.765 625.192 312.85 625.32C312.935 625.448 313.031 625.597 313.138 625.768C313.223 625.619 313.298 625.491 313.362 625.384C313.447 625.256 313.511 625.171 313.554 625.128C314.045 624.403 314.514 623.72 314.962 623.08C315.41 622.44 315.89 621.779 316.402 621.096L316.466 620.968C316.637 620.776 316.786 620.584 316.914 620.392C317.063 620.179 317.223 619.965 317.394 619.752C317.671 619.368 318.045 619.037 318.514 618.76C318.855 618.525 319.207 618.376 319.57 618.312C319.975 618.269 320.327 618.355 320.626 618.568C320.754 618.653 320.871 618.728 320.978 618.792C321.106 618.856 321.213 618.931 321.298 619.016C321.469 619.208 321.607 619.443 321.714 619.72ZM350.51 633.384C350.51 634.024 350.478 634.675 350.414 635.336C350.35 635.976 350.222 636.605 350.03 637.224C349.838 637.821 349.55 638.397 349.166 638.952C348.782 639.485 348.259 639.955 347.598 640.36C347.278 640.573 346.894 640.755 346.446 640.904C346.019 641.032 345.561 641.139 345.07 641.224C344.601 641.331 344.131 641.395 343.662 641.416C343.193 641.459 342.755 641.469 342.35 641.448C340.43 641.384 338.873 640.925 337.678 640.072C336.505 639.197 335.598 638.12 334.958 636.84C334.339 635.56 333.934 634.173 333.742 632.68C333.571 631.165 333.539 629.725 333.646 628.36C333.71 627.549 333.849 626.675 334.062 625.736C334.297 624.797 334.627 623.891 335.054 623.016C335.502 622.141 336.046 621.352 336.686 620.648C337.347 619.944 338.126 619.411 339.022 619.048C339.854 618.707 340.761 618.493 341.742 618.408C342.745 618.301 343.726 618.333 344.686 618.504C345.667 618.675 346.574 618.984 347.406 619.432C348.259 619.88 348.931 620.477 349.422 621.224C349.763 621.779 350.03 622.451 350.222 623.24C350.414 624.029 350.446 624.787 350.318 625.512C350.211 626.152 349.987 626.6 349.646 626.856C349.305 627.091 348.931 627.187 348.526 627.144C348.121 627.08 347.726 626.909 347.342 626.632C346.979 626.333 346.734 625.96 346.606 625.512C346.457 625.021 346.275 624.573 346.062 624.168C345.849 623.741 345.518 623.389 345.07 623.112C344.558 622.792 344.014 622.611 343.438 622.568C342.883 622.525 342.339 622.589 341.806 622.76C341.294 622.931 340.803 623.197 340.334 623.56C339.886 623.923 339.513 624.339 339.214 624.808C338.851 625.341 338.574 625.928 338.382 626.568C338.19 627.187 338.051 627.837 337.966 628.52C337.881 629.181 337.849 629.853 337.87 630.536C337.913 631.197 337.998 631.837 338.126 632.456C338.361 633.501 338.723 634.483 339.214 635.4C339.406 635.741 339.662 636.051 339.982 636.328C340.323 636.584 340.697 636.797 341.102 636.968C341.507 637.117 341.934 637.213 342.382 637.256C342.83 637.299 343.257 637.267 343.662 637.16C344.238 637.011 344.707 636.819 345.07 636.584C345.433 636.328 345.721 636.029 345.934 635.688C346.147 635.347 346.286 634.973 346.35 634.568C346.435 634.163 346.478 633.736 346.478 633.288V633.256C346.201 633.256 345.955 633.256 345.742 633.256C345.529 633.235 345.369 633.224 345.262 633.224C344.793 633.224 344.334 633.139 343.886 632.968C343.502 632.84 343.214 632.637 343.022 632.36C342.809 632.125 342.702 631.837 342.702 631.496C342.702 631.368 342.702 631.251 342.702 631.144C342.723 631.016 342.745 630.888 342.766 630.76C342.83 630.589 342.969 630.376 343.182 630.12C343.31 630.013 343.513 629.928 343.79 629.864C343.918 629.821 344.046 629.789 344.174 629.768C344.302 629.725 344.451 629.693 344.622 629.672C344.75 629.651 344.889 629.64 345.038 629.64C345.187 629.64 345.337 629.64 345.486 629.64H348.398C348.633 629.619 348.899 629.651 349.198 629.736C349.518 629.8 349.763 629.907 349.934 630.056C349.998 630.141 350.062 630.227 350.126 630.312C350.19 630.397 350.243 630.493 350.286 630.6C350.371 630.835 350.425 631.069 350.446 631.304C350.467 631.432 350.478 631.571 350.478 631.72C350.499 631.848 350.51 631.965 350.51 632.072V633.384ZM379.834 639.592C379.855 639.805 379.834 640.008 379.77 640.2C379.727 640.328 379.663 640.435 379.578 640.52C379.514 640.605 379.429 640.691 379.322 640.776C379.13 640.904 378.895 641.021 378.618 641.128C378.447 641.171 378.277 641.203 378.106 641.224C377.957 641.267 377.797 641.267 377.626 641.224C377.285 641.203 376.986 641.075 376.73 640.84C376.367 640.541 376.069 640.211 375.834 639.848C375.727 639.677 375.61 639.485 375.482 639.272C375.354 639.059 375.237 638.835 375.13 638.6L371.578 631.848C371.407 631.848 371.237 631.859 371.066 631.88C370.895 631.88 370.725 631.891 370.554 631.912C370.106 631.955 369.679 631.965 369.274 631.944C368.89 631.923 368.485 631.923 368.058 631.944H367.45V637.736C367.45 637.907 367.439 638.067 367.418 638.216C367.418 638.365 367.418 638.525 367.418 638.696C367.418 638.803 367.407 638.941 367.386 639.112C367.386 639.283 367.375 639.443 367.354 639.592C367.311 639.827 367.215 640.072 367.066 640.328C366.917 640.563 366.714 640.765 366.458 640.936C366.01 641.213 365.466 641.288 364.826 641.16C364.549 641.096 364.282 640.989 364.026 640.84C363.941 640.776 363.866 640.701 363.802 640.616C363.738 640.509 363.685 640.403 363.642 640.296C363.599 640.189 363.557 640.083 363.514 639.976C363.493 639.848 363.461 639.731 363.418 639.624C363.354 639.411 363.322 639.208 363.322 639.016V620.84C363.322 620.712 363.322 620.584 363.322 620.456C363.343 620.307 363.365 620.179 363.386 620.072C363.407 619.837 363.482 619.603 363.61 619.368C363.674 619.112 363.781 618.931 363.93 618.824C364.058 618.696 364.25 618.589 364.506 618.504C364.783 618.397 365.178 618.355 365.69 618.376C366.65 618.397 367.599 618.408 368.538 618.408C369.477 618.408 370.415 618.429 371.354 618.472C371.973 618.515 372.623 618.589 373.306 618.696C374.01 618.781 374.661 618.941 375.258 619.176C375.642 619.325 375.994 619.475 376.314 619.624C376.719 619.859 377.039 620.083 377.274 620.296C378.021 620.979 378.586 621.8 378.97 622.76C379.354 623.72 379.546 624.691 379.546 625.672C379.546 626.824 379.269 627.88 378.714 628.84C378.181 629.8 377.317 630.515 376.122 630.984C376.079 631.027 376.015 631.059 375.93 631.08C375.866 631.08 375.813 631.091 375.77 631.112L378.714 637.032L379.002 637.544C379.045 637.629 379.098 637.725 379.162 637.832C379.226 637.939 379.279 638.045 379.322 638.152C379.386 638.259 379.439 638.376 379.482 638.504C379.546 638.632 379.61 638.749 379.674 638.856C379.738 639.155 379.791 639.4 379.834 639.592ZM371.834 628.2C372.218 628.2 372.581 628.136 372.922 628.008C373.285 627.859 373.605 627.667 373.882 627.432C374.181 627.197 374.426 626.931 374.618 626.632C374.81 626.312 374.917 625.971 374.938 625.608C375.023 624.541 374.746 623.752 374.106 623.24C373.466 622.707 372.623 622.419 371.578 622.376C370.959 622.333 370.277 622.312 369.53 622.312C368.805 622.312 368.111 622.312 367.45 622.312C367.471 623.187 367.471 624.083 367.45 625C367.45 625.896 367.45 626.963 367.45 628.2H371.834ZM398.32 619.112C399.749 618.579 401.04 618.344 402.192 618.408C403.365 618.472 404.41 618.771 405.328 619.304C406.245 619.816 407.024 620.509 407.664 621.384C408.325 622.259 408.858 623.24 409.264 624.328C409.584 625.139 409.829 625.992 410 626.888C410.17 627.784 410.266 628.68 410.288 629.576C410.33 630.451 410.298 631.315 410.192 632.168C410.106 633.021 409.957 633.811 409.744 634.536C409.616 635.027 409.466 635.475 409.296 635.88C409.125 636.285 408.922 636.691 408.688 637.096C408.154 638.013 407.461 638.76 406.608 639.336C405.776 639.912 404.858 640.317 403.856 640.552C403.173 640.723 402.469 640.808 401.744 640.808C401.018 640.787 400.304 640.691 399.6 640.52C398.896 640.328 398.213 640.061 397.552 639.72C396.912 639.357 396.325 638.909 395.792 638.376C395.13 637.736 394.586 637 394.16 636.168C393.733 635.315 393.402 634.429 393.168 633.512C392.933 632.573 392.784 631.635 392.72 630.696C392.656 629.757 392.656 628.861 392.72 628.008C392.784 627.219 392.933 626.376 393.168 625.48C393.424 624.584 393.786 623.72 394.256 622.888C394.725 622.056 395.29 621.309 395.952 620.648C396.634 619.965 397.424 619.453 398.32 619.112ZM405.808 632.808C406.064 631.805 406.17 630.675 406.128 629.416C406.085 628.157 405.882 626.973 405.52 625.864C405.285 625.181 404.986 624.584 404.624 624.072C404.282 623.539 403.866 623.133 403.376 622.856C402.906 622.579 402.352 622.44 401.712 622.44C401.072 622.44 400.357 622.632 399.568 623.016C399.098 623.251 398.693 623.571 398.352 623.976C398.032 624.381 397.765 624.84 397.552 625.352C397.36 625.864 397.2 626.397 397.072 626.952C396.965 627.507 396.901 628.04 396.88 628.552C396.837 629.107 396.826 629.693 396.848 630.312C396.869 630.909 396.933 631.517 397.04 632.136C397.168 632.733 397.338 633.309 397.552 633.864C397.765 634.397 398.053 634.877 398.416 635.304C398.97 635.944 399.61 636.392 400.336 636.648C401.082 636.883 401.818 636.915 402.544 636.744C403.717 636.488 404.613 635.709 405.232 634.408C405.488 633.939 405.68 633.405 405.808 632.808ZM440.618 620.104C440.746 621.128 440.82 622.323 440.842 623.688C440.863 625.032 440.842 626.397 440.778 627.784C440.735 629.149 440.639 630.451 440.49 631.688C440.34 632.904 440.159 633.885 439.946 634.632C439.796 635.08 439.615 635.549 439.402 636.04C439.21 636.509 438.996 636.936 438.762 637.32C438.42 637.896 438.004 638.408 437.514 638.856C437.023 639.283 436.479 639.656 435.882 639.976C435.306 640.275 434.687 640.509 434.026 640.68C433.386 640.851 432.746 640.947 432.106 640.968C430.975 641.011 429.898 640.851 428.874 640.488C427.871 640.104 426.943 639.507 426.09 638.696C425.45 638.077 424.938 637.416 424.554 636.712C424.17 636.008 423.871 635.272 423.658 634.504C423.444 633.715 423.306 632.904 423.242 632.072C423.199 631.24 423.178 630.387 423.178 629.512C423.178 629.107 423.167 628.605 423.146 628.008C423.146 627.389 423.146 626.76 423.146 626.12C423.146 625.459 423.146 624.819 423.146 624.2C423.146 623.581 423.156 623.059 423.178 622.632C423.178 622.355 423.178 622.056 423.178 621.736C423.178 621.395 423.188 621.064 423.21 620.744C423.252 620.403 423.316 620.083 423.402 619.784C423.487 619.464 423.615 619.176 423.786 618.92C423.978 618.643 424.244 618.44 424.586 618.312C424.927 618.184 425.279 618.12 425.642 618.12C426.026 618.12 426.388 618.195 426.73 618.344C427.071 618.493 427.348 618.707 427.562 618.984C427.668 619.155 427.743 619.325 427.786 619.496C427.828 619.667 427.86 619.859 427.882 620.072C427.924 620.776 427.946 621.576 427.946 622.472C427.967 623.368 427.967 624.243 427.946 625.096C427.946 625.928 427.935 626.696 427.914 627.4C427.892 628.104 427.882 628.627 427.882 628.968C427.882 630.248 427.946 631.411 428.074 632.456C428.202 633.48 428.5 634.333 428.97 635.016C429.396 635.635 429.898 636.029 430.474 636.2C431.05 636.371 431.626 636.424 432.202 636.36C432.735 636.296 433.268 636.104 433.802 635.784C434.356 635.443 434.794 634.952 435.114 634.312C435.242 634.077 435.348 633.811 435.434 633.512C435.519 633.213 435.583 632.936 435.626 632.68C435.711 631.869 435.786 630.931 435.85 629.864C435.914 628.776 435.967 627.667 436.01 626.536C436.052 625.405 436.074 624.296 436.074 623.208C436.074 622.12 436.063 621.139 436.042 620.264C436.084 619.88 436.202 619.528 436.394 619.208C436.564 618.931 436.81 618.685 437.13 618.472C437.45 618.259 437.887 618.152 438.442 618.152C438.89 618.173 439.252 618.291 439.53 618.504C439.807 618.696 440.031 618.909 440.202 619.144C440.394 619.421 440.532 619.741 440.618 620.104ZM471.794 638.568C471.772 638.931 471.719 639.315 471.634 639.72C471.57 640.125 471.367 640.456 471.026 640.712C470.77 640.925 470.482 641.053 470.162 641.096C469.842 641.139 469.522 641.117 469.202 641.032C468.903 640.968 468.615 640.861 468.338 640.712C468.06 640.541 467.836 640.339 467.666 640.104C466.94 639.208 466.268 638.291 465.65 637.352C465.052 636.392 464.444 635.432 463.826 634.472L461.138 630.408C460.775 629.832 460.391 629.192 459.986 628.488C459.58 627.763 459.164 627.091 458.738 626.472L458.642 638.696V638.984C458.642 639.325 458.578 639.667 458.45 640.008C458.343 640.328 458.151 640.605 457.874 640.84C457.66 641.011 457.383 641.128 457.042 641.192C456.508 641.299 456.06 641.267 455.698 641.096C455.356 640.925 455.079 640.691 454.866 640.392C454.674 640.093 454.535 639.752 454.45 639.368C454.386 638.963 454.375 638.568 454.418 638.184V637.64L454.482 635.144L454.514 630.504C454.535 629.821 454.546 629.128 454.546 628.424C454.546 627.699 454.546 626.963 454.546 626.216C454.524 625.299 454.524 624.328 454.546 623.304C454.588 622.28 454.631 621.32 454.674 620.424C454.716 619.933 454.834 619.517 455.026 619.176C455.111 618.877 455.335 618.621 455.698 618.408C455.932 618.259 456.231 618.163 456.594 618.12C456.978 618.077 457.308 618.088 457.586 618.152C457.692 618.195 457.799 618.248 457.906 618.312C458.012 618.355 458.119 618.408 458.226 618.472C458.332 618.557 458.428 618.643 458.514 618.728C458.62 618.813 458.716 618.909 458.802 619.016C458.908 619.123 459.004 619.24 459.09 619.368C459.175 619.475 459.26 619.581 459.346 619.688C459.41 619.816 459.474 619.933 459.538 620.04C459.602 620.147 459.676 620.253 459.762 620.36L460.114 620.872L467.506 632.52V630.408C467.506 629.725 467.495 629.032 467.474 628.328C467.474 627.603 467.463 626.856 467.442 626.088C467.442 625.192 467.442 624.232 467.442 623.208C467.463 622.184 467.495 621.224 467.538 620.328C467.538 619.965 467.644 619.549 467.858 619.08C467.964 618.803 468.146 618.579 468.402 618.408C468.658 618.237 468.946 618.12 469.266 618.056C469.586 617.992 469.906 617.992 470.226 618.056C470.546 618.12 470.823 618.248 471.058 618.44C471.122 618.504 471.186 618.579 471.25 618.664C471.314 618.749 471.367 618.845 471.41 618.952C471.516 619.229 471.58 619.475 471.602 619.688C471.666 619.987 471.698 620.253 471.698 620.488C471.698 623.155 471.698 625.875 471.698 628.648C471.719 631.421 471.74 634.141 471.762 636.808C471.762 637.107 471.772 637.405 471.794 637.704C471.815 637.981 471.815 638.269 471.794 638.568ZM501.458 628.136C501.5 628.84 501.49 629.565 501.426 630.312C501.383 631.059 501.308 631.784 501.202 632.488C500.988 633.704 500.594 634.888 500.018 636.04C499.442 637.192 498.599 638.173 497.49 638.984C496.338 639.837 495.026 640.424 493.554 640.744C492.082 641.043 490.62 641.224 489.17 641.288C488.679 641.331 488.178 641.341 487.666 641.32C487.175 641.32 486.695 641.267 486.226 641.16C485.842 641.096 485.554 640.979 485.362 640.808C485.255 640.744 485.17 640.659 485.106 640.552C485.042 640.445 484.988 640.339 484.946 640.232C484.882 640.125 484.828 640.019 484.786 639.912C484.764 639.784 484.732 639.656 484.69 639.528C484.668 639.421 484.647 639.325 484.626 639.24C484.626 639.133 484.626 639.037 484.626 638.952V620.68C484.626 620.531 484.626 620.392 484.626 620.264C484.626 620.136 484.647 620.008 484.69 619.88C484.732 619.581 484.796 619.336 484.882 619.144C484.967 618.888 485.084 618.707 485.234 618.6C485.362 618.493 485.49 618.419 485.618 618.376C485.746 618.312 485.863 618.259 485.97 618.216C486.098 618.173 486.226 618.173 486.354 618.216C486.503 618.237 486.663 618.205 486.834 618.12L492.178 618.248C493.586 618.291 494.844 618.621 495.954 619.24C497.063 619.837 498.012 620.605 498.802 621.544C499.591 622.483 500.21 623.539 500.658 624.712C501.106 625.864 501.372 627.005 501.458 628.136ZM495.506 634.216C495.911 633.576 496.21 632.84 496.402 632.008C496.594 631.176 496.679 630.333 496.658 629.48C496.636 628.605 496.519 627.763 496.306 626.952C496.092 626.12 495.794 625.384 495.41 624.744C495.111 624.275 494.727 623.891 494.258 623.592C493.788 623.293 493.266 623.069 492.69 622.92C492.114 622.749 491.495 622.632 490.834 622.568C490.194 622.504 489.564 622.472 488.946 622.472C488.967 623.091 488.978 623.688 488.978 624.264C488.978 624.84 488.978 625.448 488.978 626.088C488.956 626.856 488.946 627.603 488.946 628.328C488.946 629.053 488.946 629.757 488.946 630.44V636.968C489.607 636.947 490.236 636.915 490.834 636.872C491.452 636.808 492.039 636.68 492.594 636.488C493.17 636.296 493.692 636.029 494.162 635.688C494.652 635.325 495.1 634.835 495.506 634.216Z" fill="white"/>
</svg>
