<?xml version="1.0" encoding="UTF-8" standalone="no"?>
<svg
   width="720"
   height="720"
   viewBox="0 0 720 720"
   fill="none"
   version="1.1"
   id="svg18"
   sodipodi:docname="BBDatastorePlaygroundLogo.svg"
   inkscape:version="1.3.2 (091e20e, 2023-11-25, custom)"
   xmlns:inkscape="http://www.inkscape.org/namespaces/inkscape"
   xmlns:sodipodi="http://sodipodi.sourceforge.net/DTD/sodipodi-0.dtd"
   xmlns="http://www.w3.org/2000/svg"
   xmlns:svg="http://www.w3.org/2000/svg">
  <defs
     id="defs18" />
  <sodipodi:namedview
     id="namedview18"
     pagecolor="#ffffff"
     bordercolor="#000000"
     borderopacity="0.25"
     inkscape:showpageshadow="2"
     inkscape:pageopacity="0.0"
     inkscape:pagecheckerboard="0"
     inkscape:deskcolor="#d1d1d1"
     showgrid="false"
     inkscape:zoom="0.772907"
     inkscape:cx="590.62734"
     inkscape:cy="435.36933"
     inkscape:window-width="1920"
     inkscape:window-height="1001"
     inkscape:window-x="-9"
     inkscape:window-y="-9"
     inkscape:window-maximized="1"
     inkscape:current-layer="svg18" />
  <rect
     width="720"
     height="720"
     rx="30"
     fill="#001669"
     id="rect1" />
  <rect
     x="-670.16522"
     y="58.132149"
     width="622.99237"
     height="108.35907"
     rx="46.08437"
     transform="rotate(-90)"
     fill="#bcfdff"
     id="rect9"
     style="stroke-width:1.85068" />
  <g
     id="g18"
     transform="translate(0,-27.309213)">
    <ellipse
       cx="485.54843"
       cy="277.59467"
       fill="#bcfdff"
       id="circle2"
       rx="26.086443"
       ry="22.18877"
       style="stroke-width:1.85068" />
    <rect
       x="216.65744"
       y="267.35367"
       width="202.67157"
       height="22.18877"
       rx="13.043221"
       fill="#7adefe"
       id="rect6"
       style="stroke-width:1.85068" />
    <ellipse
       cx="485.54843"
       cy="506.30966"
       fill="#bcfdff"
       id="circle6"
       rx="26.086443"
       ry="22.18877"
       style="stroke-width:1.85068" />
    <rect
       x="216.65744"
       y="494.36185"
       width="202.67157"
       height="22.18877"
       rx="13.043221"
       fill="#7adefe"
       id="rect7"
       style="stroke-width:1.85068" />
    <path
       fill-rule="evenodd"
       clip-rule="evenodd"
       d="m 249.76715,209.3215 c 0.33512,0 0.67023,-0.003 1.00333,-0.008 v 0.008 H 491.5684 c 42.11355,0 76.25268,29.03828 76.25268,64.85948 0,35.82122 -34.13913,64.8595 -76.25268,64.8595 H 250.77048 v 0.008 c -0.3331,-0.006 -0.66821,-0.008 -1.00333,-0.008 -29.36931,0 -53.1762,20.63213 -53.1762,46.08435 0,25.45222 23.80689,46.08438 53.1762,46.08438 0.33512,0 0.67023,-0.003 1.00333,-0.008 v 0.008 h 242.80457 c 101.95785,0 184.61174,-70.30427 184.61174,-157.02823 0,-86.72394 -82.65389,-157.02821 -184.61174,-157.02821 H 250.77048 v 0.009 c -0.3331,-0.005 -0.66821,-0.009 -1.00333,-0.009 -29.36931,0 -53.1762,20.63214 -53.1762,46.08436 0,25.45224 23.80689,46.08437 53.1762,46.08437 z"
       fill="#bcfdff"
       id="path15"
       style="stroke-width:1.85068" />
    <path
       fill-rule="evenodd"
       clip-rule="evenodd"
       d="m 249.76715,432.91603 c 0.33512,0 0.67023,-0.003 1.00333,-0.008 v 0.008 H 491.5684 c 42.11355,0 76.25268,29.03827 76.25268,64.85948 0,35.82121 -34.13913,64.85949 -76.25268,64.85949 H 250.77048 v 0.008 c -0.3331,-0.006 -0.66821,-0.008 -1.00333,-0.008 -29.36931,0 -53.1762,20.63214 -53.1762,46.08436 0,25.45222 23.80689,46.08437 53.1762,46.08437 0.33512,0 0.67023,-0.003 1.00333,-0.008 v 0.008 h 242.80457 c 101.95785,0 184.61174,-70.30426 184.61174,-157.02822 0,-86.72394 -82.65389,-157.02822 -184.61174,-157.02822 H 250.77048 v 0.008 c -0.3331,-0.006 -0.66821,-0.008 -1.00333,-0.008 -29.36931,0 -53.1762,20.63214 -53.1762,46.08437 0,25.45223 23.80689,46.08437 53.1762,46.08437 z"
       fill="#bcfdff"
       id="path16"
       style="stroke-width:1.85068" />
  </g>
</svg>
